<svg xmlns="http://www.w3.org/2000/svg" width="104" height="92" viewBox="0 0 104 92">
  <ellipse cx="52" cy="77" rx="36" ry="11" fill="rgba(0,0,0,.23)"/>
  <polygon points="17,56 50,36 87,57 53,78" fill="#c18149"/>
  <polygon points="17,56 53,78 53,86 17,65" fill="#8d5b38"/>
  <polygon points="87,57 53,78 53,86 87,65" fill="#754931"/>
  <polygon points="29,50 51,31 73,50 52,62" fill="#e09a5a"/>
  <rect x="39" y="59" width="22" height="17" rx="8" fill="#3c2b25"/>
  <path d="M33 28 C41 18, 51 26, 59 16 C63 26, 75 20, 78 32" fill="none" stroke="#ead9ba" stroke-width="4" opacity=".55"/>
  <ellipse cx="70" cy="63" rx="9" ry="5" fill="#f0bf68"/>
</svg>
