<svg xmlns="http://www.w3.org/2000/svg" width="112" height="96" viewBox="0 0 112 96">
  <ellipse cx="56" cy="80" rx="42" ry="12" fill="rgba(0,0,0,.24)"/>
  <polygon points="16,56 52,38 94,58 58,80" fill="#4f5964"/>
  <polygon points="16,56 58,80 58,91 16,68" fill="#3f4852"/>
  <polygon points="94,58 58,80 58,91 94,70" fill="#303943"/>
  <polygon points="30,47 48,31 62,48 52,54" fill="#7b6a54"/>
  <rect x="70" y="24" width="11" height="42" fill="#525b66"/>
  <ellipse cx="76" cy="22" rx="8" ry="4" fill="#697482"/>
  <path d="M80 17 C90 10, 94 17, 101 11" fill="none" stroke="#c9d0d4" stroke-width="4" opacity=".5"/>
  <g fill="#ffcf65"><rect x="35" y="61" width="8" height="6"/><rect x="50" y="69" width="8" height="6"/><rect x="72" y="62" width="8" height="6"/></g>
</svg>
