<svg xmlns="http://www.w3.org/2000/svg" width="112" height="88" viewBox="0 0 112 88">
  <ellipse cx="56" cy="74" rx="43" ry="12" fill="rgba(0,0,0,.20)"/>
  <polygon points="14,56 54,34 98,56 58,78" fill="#c9a33f"/>
  <polygon points="14,56 58,78 58,84 14,63" fill="#9d7f35"/>
  <polygon points="98,56 58,78 58,84 98,63" fill="#80682c"/>
  <g stroke="#f4d36a" stroke-width="2">
    <path d="M30 58 L52 46"/><path d="M40 63 L63 50"/><path d="M51 68 L75 55"/>
    <path d="M44 50 L69 63"/><path d="M34 55 L59 69"/><path d="M57 43 L84 57"/>
  </g>
  <polygon points="38,47 55,35 70,47 54,56" fill="#a05236"/>
  <polygon points="44,45 55,30 66,45 55,51" fill="#d86545"/>
</svg>
