<svg xmlns="http://www.w3.org/2000/svg" width="112" height="112" viewBox="0 0 112 112">
  <ellipse cx="56" cy="95" rx="36" ry="11" fill="rgba(0,0,0,.23)"/>
  <polygon points="24,68 54,49 88,68 57,88" fill="#b9a77a"/>
  <polygon points="24,68 57,88 57,101 24,80" fill="#857458"/>
  <polygon points="88,68 57,88 57,101 88,80" fill="#6f6049"/>
  <polygon points="34,60 56,38 78,60 56,73" fill="#d7c28b"/>
  <circle cx="56" cy="58" r="7" fill="#5b4b38"/>
  <g stroke="#f0e2b8" stroke-width="5" stroke-linecap="round">
    <path d="M56 58 L56 22"/><path d="M56 58 L90 58"/><path d="M56 58 L56 94"/><path d="M56 58 L22 58"/>
  </g>
  <circle cx="56" cy="58" r="4" fill="#8b6d43"/>
</svg>
