<svg xmlns="http://www.w3.org/2000/svg" width="112" height="100" viewBox="0 0 112 100">
  <ellipse cx="56" cy="84" rx="42" ry="12" fill="rgba(0,0,0,.25)"/>
  <polygon points="16,60 52,39 96,61 58,84" fill="#744e45"/>
  <polygon points="16,60 58,84 58,94 16,70" fill="#523a36"/>
  <polygon points="96,61 58,84 58,94 96,70" fill="#3f302f"/>
  <rect x="74" y="27" width="13" height="42" fill="#4c4a4b"/>
  <ellipse cx="80.5" cy="26" rx="8" ry="4" fill="#676364"/>
  <path d="M82 20 C93 11, 97 21, 106 13" fill="none" stroke="#d0d0d0" stroke-width="5" opacity=".45"/>
  <path d="M37 65 C42 53, 51 53, 56 65 C49 61, 44 70, 37 65Z" fill="#ffb13b"/>
  <path d="M43 65 C47 58, 51 58, 54 65" fill="none" stroke="#ffe06a" stroke-width="3"/>
</svg>
