<svg xmlns="http://www.w3.org/2000/svg" width="96" height="128" viewBox="0 0 96 128">
  <ellipse cx="48" cy="112" rx="32" ry="11" fill="rgba(0,0,0,.24)"/>
  <polygon points="28,38 50,28 70,40 48,51" fill="#8fb0c8"/>
  <polygon points="28,38 48,51 48,109 28,96" fill="#60758c"/>
  <polygon points="70,40 48,51 48,109 70,96" fill="#42576d"/>
  <polygon points="28,96 48,109 70,96 70,104 48,118 28,104" fill="#39485a"/>
  <g fill="#ccecff" opacity=".82">
    <rect x="34" y="50" width="5" height="6"/><rect x="42" y="55" width="5" height="6"/>
    <rect x="34" y="64" width="5" height="6"/><rect x="42" y="69" width="5" height="6"/>
    <rect x="34" y="78" width="5" height="6"/><rect x="42" y="83" width="5" height="6"/>
    <rect x="55" y="55" width="5" height="6"/><rect x="63" y="51" width="5" height="6"/>
    <rect x="55" y="69" width="5" height="6"/><rect x="63" y="65" width="5" height="6"/>
    <rect x="55" y="83" width="5" height="6"/><rect x="63" y="79" width="5" height="6"/>
  </g>
</svg>
